<svg xmlns="http://www.w3.org/2000/svg" width="1968" height="1968" style="shape-rendering:geometricPrecision;text-rendering:geometricPrecision;image-rendering:optimizeQuality;fill-rule:evenodd;clip-rule:evenodd"><path style="opacity:.074" fill="#010101" d="M865 0h238a994 994 0 0 1 865 863v245a998 998 0 0 1-865 860H865A991 991 0 0 1 0 1109V856A996 996 0 0 1 865 0Z"/><path style="opacity:.564" fill="#3f3f3f" d="M887 14c63-1 127-2 192-1 15 0 30 2 45 6l-18-1h-1l-26-4H887Z"/><path style="opacity:.289" fill="#171717" d="M1079 13c-65-1-129 0-192 1h-1a261 261 0 0 0-43 6 503 503 0 0 0-118 25h-2l-10 2a1757 1757 0 0 0-47 15h-1c-6 0-11 2-15 5l-8 2c-2 0-3 1-3 3-1-1-2 0-2 1-10 1-20 5-28 9l-2 3-6 1c1-2 2-3 5-2-1-2 0-3 2-4 88-37 181-60 278-69l193 2Z"/><path style="opacity:.722" fill="gray" d="M886 15v-1h193l26 4-28-2c-64-1-128-2-191-1Z"/><path style="opacity:.882" fill="#c3c3c3" d="M886 15Z"/><path style="opacity:1" fill="#fbfbfb" d="m1077 16 28 2h1l2 1 19 2 10 2 20 3a541 541 0 0 0 54 11c3 2 8 3 13 3 4 3 10 4 16 4 0 1 1 2 3 2l8 1 23 8 13 4a709 709 0 0 0 60 22 96342 96342 0 0 0 58 25 1257 1257 0 0 1 188 118 407 407 0 0 0 31 26l17 15c3 4 6 7 11 10l49 50 10 11a1017 1017 0 0 1 85 109c0 3 2 6 5 8 0 3 2 5 5 8 0 2 1 4 4 6 0 3 2 6 5 8l8 17 7 8 8 14v4c3 3 5 6 6 11l6 7v2a1412 1412 0 0 0 32 68c-1 2 0 3 2 5 1 5 4 11 7 16v2l3 7a891 891 0 0 0 22 66c0 4 1 8 4 13 0 5 2 10 5 15-1 3 0 6 2 9 1 10 3 20 7 30l8 42 3 14 2 17 2 13c-1 5 0 10 2 15l1 10a1647 1647 0 0 1 5 134v22l-5 56v2c-2 9-4 19-4 29v1a895 895 0 0 1-114 336 1528 1528 0 0 1-63 98 997 997 0 0 1-460 343 2195 2195 0 0 1-147 39 420 420 0 0 0-50 9l-16 1a616 616 0 0 1-81 6l-94-1h-18v-1a1548 1548 0 0 1-124-18h-1c-5-3-11-4-16-3-7-3-14-4-20-5-8-4-15-6-23-6l-9-3c-4-3-8-4-12-4-5-2-10-4-14-4a177 177 0 0 0-26-8l-2-2c-3-2-6-2-9-2-3-3-5-4-8-3-10-6-19-10-29-12-4-1-7-2-9-4-6-4-11-6-17-7a1532 1532 0 0 1-128-69c-7-6-13-10-20-13l-7-5h-2l-7-7-12-8-3-4a262 262 0 0 1-53-40c-3-4-6-7-9-8l-2-1-10-9a2172 2172 0 0 0-20-19 1440 1440 0 0 0-54-55 515 515 0 0 0-38-45 378 378 0 0 0-28-37c-26-37-50-76-71-115h-1c-4-11-9-20-14-29-2-6-4-11-7-15l-11-25-18-45-16-46a1903 1903 0 0 0-21-77v-2l-8-39-12-85a9120 9120 0 0 1 2-204l2-15 1-14v-1l1-2a301968 301968 0 0 0 7-39v-2l3-14v-2a331 331 0 0 0 11-44 489 489 0 0 1 22-72v-2l6-17 4-9 1-6c2-2 3-5 3-8l8-19 1-1 4-8 2-7 5-10 7-13 2-6 5-10a599 599 0 0 0 10-19v-2l2-2 4-8a214780 214780 0 0 0 64-103l9-10c4-8 9-15 15-20 4-9 10-16 17-21l9-11a6000 6000 0 0 1 17-19 2129 2129 0 0 1 70-71c9-11 19-20 31-27l35-28a2105 2105 0 0 1 98-66l19-10a2048 2048 0 0 0 14-8 541 541 0 0 1 105-48 2460 2460 0 0 1 93-32h2a6646 6646 0 0 1 52-12 994 994 0 0 0 66-13 10334 10334 0 0 1 234-4Z"/><path style="opacity:.592" fill="#545454" d="M886 14v1c-3 0-6 0-8 2a2509 2509 0 0 0-34 1c13-3 27-4 42-4Z"/><path style="opacity:.69" fill="#858585" d="m1106 18 18 1 3 2-19-2-2-1Z"/><path style="opacity:.565" fill="#4e4e4e" d="M1124 19c3-1 7 0 11 1l24 4 2 2h-4l-20-3-10-2-3-2Z"/><path style="opacity:.639" fill="#666" d="M843 20a1453 1453 0 0 1-42 7v-1c13-3 27-5 42-6Z"/><path style="opacity:.718" fill="#9b9b9b" d="m1137 23 20 3-20-3Z"/><path style="opacity:.287" fill="#191919" d="M1135 20a435 435 0 0 1 97 20h-8c-4-3-9-4-13-3a282 282 0 0 0-52-13l-24-4Z"/><path style="opacity:.722" fill="#818181" d="M1157 26h4c17 2 33 5 50 11l-22-5-32-6Z"/><path style="opacity:.58" fill="#424242" d="M801 26v1l-19 3c-2 0-4 1-5 3-8 0-15 1-22 3 1-2 3-2 6-3 13-3 26-6 40-7Z"/><path style="opacity:.847" fill="#9c9c9c" d="M813 26Z"/><path style="opacity:1" fill="#040304" d="M1234 63a952 952 0 0 1-273 115c-4 1-6 3-7 6l2 1 17-3a514 514 0 0 0 268-109l2 1c0 14 2 28 6 42 5 11 13 19 24 24 17 8 35 14 55 18l68 7v3l-18 9-52 19a447 447 0 0 0 165 17c16-2 33-3 50-3 26 18 51 38 75 60-31 32-64 62-99 89 7-2 15-4 23-8 31-17 59-39 82-67 1-2 3-4 6-4a954 954 0 1 1-394-217Z"/><path style="opacity:.745" fill="#818181" d="M777 33Z"/><path style="opacity:.624" fill="#787878" d="M1211 37c4-1 9 0 13 3-5 0-10-1-13-3Z"/><path style="opacity:.706" fill="#717171" d="M748 39Z"/><path style="opacity:.576" fill="#727272" d="M1224 40h8l8 4c-6 0-12-1-16-4Z"/><path style="opacity:.557" fill="#646464" d="M1240 44c4-1 7 0 11 3l-8-1c-2 0-3-1-3-2Z"/><path style="opacity:.447" fill="#494949" d="M1251 47c14 1 27 5 40 12h-4c-4-3-9-4-13-4l-23-8Z"/><path style="opacity:.765" fill="#7d7d7d" d="m723 45-23 7 13-5 10-2Z"/><path style="opacity:.616" fill="#474747" d="m713 47-13 5-5 2c-10 1-20 4-29 8a1757 1757 0 0 1 47-15Z"/><path style="opacity:.765" fill="#b1b1b1" d="M1274 55c4 0 9 1 13 4l-13-4Z"/><path style="opacity:.753" fill="#9f9f9f" d="M1287 59h4l20 7 22 7 3 3-49-17Z"/><path style="opacity:.561" fill="#565656" d="m1291 59 16 4 4 3-20-7Z"/><path style="opacity:.831" fill="#9e9e9e" d="m695 54-65 23 7-4c0-1 1-2 2-1 9-2 17-6 26-10h1c9-4 19-7 29-8Z"/><path style="opacity:1" fill="#e2e0e1" d="m1234 63 36 11c-4 7-6 15-7 24 0 8 4 15 12 19 29 14 60 23 93 27 24 2 48 3 73 2l9 6c-20 17-42 30-66 39-1 0-2 1-1 3 45 2 90 2 135-1l23 17a756 756 0 0 1-105 4c-38-2-75-8-110-18l52-19 18-9v-3l-68-7c-20-4-38-10-55-18-11-5-19-13-24-24-4-14-6-28-6-42l-2-1-63 41c-64 37-133 60-205 68-1-2 0-4 1-5l70-23c66-24 130-54 190-91Z"/><path style="opacity:.289" fill="#1f1f1f" d="m1307 63 25 6c4 1 8 3 12 7h-8l-3-3a263 263 0 0 1-26-10Z"/><path style="opacity:.506" fill="#414141" d="M665 62c-9 4-17 8-26 10 0-2 1-3 3-3l8-2c4-3 9-5 15-5Z"/><path style="opacity:1" fill="#060506" d="M1270 74c59 18 116 42 171 72-25 1-49 0-73-2-33-4-64-13-93-27-8-4-12-11-12-19 1-9 3-17 7-24Z"/><path style="opacity:.443" fill="#3e3e3e" d="m637 73-7 4-11 2c-2 1-4 2-4 4-3 0-6 0-8 2l2-3c8-4 18-8 28-9Z"/><path style="opacity:.482" fill="#4f4f4f" d="M1336 76h8l17 9-17-6c-4 0-6-1-8-3Z"/><path style="opacity:.808" fill="#8b8b8b" d="M630 77Z"/><path style="opacity:.902" fill="#aeaeae" d="m615 83-12 5c1-2 2-3 4-3 2-2 5-2 8-2Z"/><path style="opacity:.635" fill="#515151" d="M607 85c-2 0-3 1-4 3l-6 1c0-2 2-3 4-3l6-1Z"/><path style="opacity:.702" fill="#979797" d="m1344 79 17 6a2005 2005 0 0 1-17-6Z"/><path style="opacity:.737" fill="#969696" d="m603 88-19 8 2-3 11-4 6-1Z"/><path style="opacity:.482" fill="#404040" d="m597 89-11 4-2 3-11 5h-4c1-3 3-4 7-4 6-4 13-7 21-8Z"/><path style="opacity:.522" fill="#353535" d="M1380 93c6-1 11 2 16 7h-4c-4-3-8-6-12-7Z"/><path style="opacity:.663" fill="#949494" d="M1392 100h4l9 6-13-6Z"/><path style="opacity:.29" fill="#1d1d1d" d="M1396 100c7-1 13 1 18 7l14 7 2-1 29 15 11 10a3153 3153 0 0 0-74-38Z"/><path style="opacity:.733" fill="#696969" d="M569 101h4a541 541 0 0 0-4 0Z"/><path style="opacity:.659" fill="gray" d="M1405 106h4l61 32a1566 1566 0 0 1 65 43c-42-28-86-53-130-75Z"/><path style="opacity:.914" fill="#9e9e9e" d="m511 133-19 10a1625 1625 0 0 1 19-10Z"/><path style="opacity:1" fill="#060506" d="M1450 152c23 12 46 26 68 41-45 3-90 3-135 1-1-2 0-3 1-3 24-9 46-22 66-39Z"/><path style="opacity:.698" fill="#888" d="m475 153-3 3-10 5c3-4 8-7 13-8Z"/><path style="opacity:1" fill="#9c9a9c" d="M974 177c-1 1-2 3-1 5l-17 3-2-1c1-3 3-5 7-6s8-2 13-1Z"/><path style="opacity:.557" fill="#6e6e6e" d="M1535 181c2-1 5 0 7 2l7 5 2 4c-6-3-12-7-16-11Z"/><path style="opacity:.529" fill="#696969" d="M1551 192h4l4 6-8-6Z"/><path style="opacity:.494" fill="#656565" d="M1562 200c4 0 6 2 8 6l-8-6Z"/><path style="opacity:.553" fill="#434343" d="m521 126-10 7c-3-1-6 0-8 2a1625 1625 0 0 0-28 18c-5 1-10 4-13 8l-13 8a510 510 0 0 0-68 48c-8 6-16 12-22 20-12 7-22 16-31 27-6 4-12 9-16 15h-2a1705 1705 0 0 1-33 31 1018 1018 0 0 1 244-184Z"/><path style="opacity:.788" fill="#919191" d="m449 169-3 3a2105 2105 0 0 0 3-3Z"/><path style="opacity:.502" fill="#696969" d="M1570 206h4c5 4 10 8 14 14l-18-14Z"/><path style="opacity:.29" fill="#171717" d="M1555 192c1 0 2 0 3 2 1-1 2-2 3-1a924 924 0 0 1 67 57h-4c-7-9-14-16-22-22h-4c-2-3-3-4-5-4-2-3-3-4-5-4-4-6-9-10-14-14h-4c-2-4-4-6-8-6-1-2-2-3-3-2l-4-6Z"/><path style="opacity:.737" fill="#959595" d="M1588 220c2 0 3 1 5 4-3-1-4-2-5-4Z"/><path style="opacity:.824" fill="#9e9e9e" d="M394 209Z"/><path style="opacity:.737" fill="#959595" d="M1593 224c2 0 3 1 5 4-3-1-4-2-5-4Z"/><path style="opacity:.494" fill="#686868" d="M1598 228h4c8 6 15 13 22 22l-26-22Z"/><path style="opacity:.643" fill="#7a7a7a" d="M1624 250h4c3 5 8 10 13 15l-17-15Z"/><path style="opacity:.655" fill="#8f8f8f" d="M1641 265c4 2 7 5 11 10-5-3-8-6-11-10Z"/><path style="opacity:.89" fill="#b7b7b7" d="m328 264-16 15c4-6 10-11 16-15Z"/><path style="opacity:1" fill="#e0dfdf" d="M1616 270c4 2 8 6 12 10-3 0-5 2-6 4-23 28-51 50-82 67-8 4-16 6-23 8 35-27 68-57 99-89Z"/><path style="opacity:.62" fill="#757575" d="M1652 275a897 897 0 0 1 49 50l-49-50Z"/><path style="opacity:.886" fill="#adadad" d="M312 279Z"/><path style="opacity:.714" fill="#828282" d="M1701 325c4 2 8 6 10 11l-10-11Z"/><path style="opacity:.827" fill="#9d9d9d" d="M258 335Z"/><path style="opacity:.714" fill="#838383" d="M1711 336c3 1 6 4 8 9-4-3-7-6-8-9Z"/><path style="opacity:.788" fill="#9c9c9c" d="m241 354-9 11c1-5 4-9 9-11Z"/><path style="opacity:.294" fill="#1d1d1d" d="M1628 250h4a1233 1233 0 0 1 112 118c1 5 4 8 9 10 2 2 3 5 4 9l-3-1a1017 1017 0 0 0-113-121c-5-5-10-10-13-15Z"/><path style="opacity:.376" fill="#464646" d="m1754 386 3 1 10 16c-6-5-10-11-13-17Z"/><path style="opacity:.295" fill="#111" d="M277 310c-2 1-2 2-2 4a897 897 0 0 0-135 178l-1-2a933 933 0 0 1 138-180Z"/><path style="opacity:.459" fill="#545454" d="M1767 403c4 2 6 6 7 11-4-4-6-7-7-11Z"/><path style="opacity:.855" fill="#8c8c8c" d="M1774 414c1-1 1 0 2 1l4 6v2l-6-9Z"/><path style="opacity:.576" fill="#555" d="m275 314-15 16-2 5c-5 1-7 4-8 9-4 2-7 6-9 10-5 2-8 6-9 11-7 5-13 12-17 21-6 5-11 12-15 20l-9 10c-1 4-4 8-8 11-1 4-3 7-7 10l-10 18a214780 214780 0 0 1-28 42c3-4 5-9 6-13a897 897 0 0 1 131-170Z"/><path style="opacity:.412" fill="#494949" d="M1780 421c5 4 8 9 11 16l-11-14v-2Z"/><path style="opacity:.427" fill="#4c4c4c" d="M1791 437c3 1 5 4 5 8l-5-8Z"/><path style="opacity:.596" fill="#606060" d="M1796 445c3 1 4 4 5 8-3-2-5-5-5-8Z"/><path style="opacity:.537" fill="#5d5d5d" d="M1801 453c3 1 5 3 5 8-3-3-5-5-5-8Z"/><path style="opacity:.792" fill="#848484" d="m1806 461 4 6c-3-2-4-4-4-6Z"/><path style="opacity:.518" fill="#575757" d="M1810 467c3 1 5 3 5 8-3-2-5-5-5-8Z"/><path style="opacity:.459" fill="#535353" d="m1815 475 7 8 6 10 2 7-7-8-8-17Z"/><path style="opacity:.537" fill="#575757" d="m1838 514 3 3 9 19-6-7c-1-5-3-8-6-11v-4Z"/><path style="opacity:.557" fill="#545454" d="m127 519-4 8-2 2 3-9c1-1 2-2 3-1Z"/><path style="opacity:.296" fill="#171717" d="m1875 585-3-2-4-12a722 722 0 0 1-18-33v-2l-9-19-3-3-8-14-2-7v-3a917 917 0 0 1 47 95Z"/><path style="opacity:.843" fill="#969696" d="m121 531-4 7c0-4 1-6 4-7Z"/><path style="opacity:.804" fill="#9c9c9c" d="M116 541Z"/><path style="opacity:.761" fill="#767676" d="m111 550-5 10c0-5 2-8 5-10Z"/><path style="opacity:.565" fill="#6c6c6c" d="m1850 538 2 1 16 32 4 12-22-45Z"/><path style="opacity:.745" fill="#696969" d="m104 566-7 13c0-4 1-8 3-11l4-2Z"/><path style="opacity:.297" fill="#181818" d="M121 529v2c-3 1-4 3-4 7l-1 3c-3 1-4 3-3 6-2 0-3 1-2 3-3 2-5 5-5 10l-2 6-4 2c-2 3-3 7-3 11l-5 5v5c-2 0-3 1-4 3a382 382 0 0 1-3 13c-5 5-7 12-8 19-3 2-4 4-3 8-3 4-5 9-5 15l-4 4-2 13v2c-4 2-5 5-4 10l-4 11c-2 0-3 1-3 3l-2 8v-10c16-52 37-102 62-150 1 2 2 2 3 0 0-4 2-7 6-9Z"/><path style="opacity:.478" fill="#595959" d="m97 579-5 10v-5l5-5Z"/><path style="opacity:.651" fill="#6b6b6b" d="m1872 583 3 2 1 7c-3-3-4-6-4-9Z"/><path style="opacity:.569" fill="#585858" d="m92 589-2 7-4 8 2-12c1-2 2-3 4-3Z"/><path style="opacity:.792" fill="#8c8c8c" d="M1882 606c1 1 2 2 2 5-2-2-3-3-2-5Z"/><path style="opacity:.514" fill="#434343" d="m1876 592 3 3 9 20c2 3 3 7 3 12-3-5-6-11-7-16 0-3-1-4-2-5l-6-14Z"/><path style="opacity:.514" fill="#484848" d="m85 605-8 19c1-7 3-14 8-19Z"/><path style="opacity:.298" fill="#151515" d="M1875 585a997 997 0 0 1 41 109l-2-1-1-2c-1-11-4-20-9-29l-6-21-4-5c0-3-1-6-3-7v-2c0-5-1-9-3-12l-9-20-3-3-1-7Z"/><path style="opacity:.631" fill="#5f5f5f" d="M77 624c0 3-1 6-3 8-1-4 0-6 3-8Z"/><path style="opacity:.702" fill="#828282" d="M1891 629c2 1 3 4 3 7l-3-7Z"/><path style="opacity:.639" fill="#6a6a6a" d="m74 632-1 6-4 9c0-6 2-11 5-15Z"/><path style="opacity:.51" fill="#676767" d="m1894 636 4 5 6 21c5 9 8 18 9 29-7-19-14-37-19-55Z"/><path style="opacity:.545" fill="#606060" d="m69 647-6 17 2-13 4-4Z"/><path style="opacity:.584" fill="#747474" d="m63 666-4 10c-1-5 0-8 4-10Z"/><path style="opacity:.596" fill="#575757" d="m55 687-2 9-4 9c-1-3 0-5 1-7l2-8c0-2 1-3 3-3Z"/><path style="opacity:.522" fill="#494949" d="m1914 693 2 1 3 8 1 9-4-9c-2-3-2-6-2-9Z"/><path style="opacity:.957" fill="#b7b7b7" d="m53 696-4 13v-4l4-9Zm1863 6 4 9v4c-3-5-4-9-4-13Z"/><path style="opacity:.561" fill="#595959" d="M49 705v4l-8 29-4 9a1127 1127 0 0 1 12-42Z"/><path style="opacity:.722" fill="#868686" d="m1920 715 5 15c-3-5-5-10-5-15Z"/><path style="opacity:.298" fill="#222" d="m1920 711 3 5 4 16 3 3 2 18-5-14c-2-3-3-6-2-9l-5-15v-4Z"/><path style="opacity:.686" fill="#787878" d="m1927 739 5 14 2 16c-4-10-6-20-7-30Z"/><path style="opacity:.776" fill="#979797" d="m41 738-4 13v-4l4-9Z"/><path style="opacity:1" fill="#e0dddf" d="m1551 768-221 2-200 3c-7 1-13 4-18 9l-47 58c-5 6-7 13-7 21-3 45 4 88 20 131l20 51h-4a547 547 0 0 1-56-126c-2-5-5-8-8-11-19 0-37-1-55-3-7 0-15 1-21 4-7 5-13 11-18 19a826 826 0 0 0-25 50c-3 0-4-1-5-2 13-27 22-55 26-84 2-17 0-32-6-47-8-20-20-38-35-52-20-13-42-20-66-20l-234-1-36 4-11-2v-2c2-2 5-4 9-5h37l19-5c91-4 183-5 275-1 4 1 7 4 10 8l49 67c6 8 8 18 7 29 1 2 3 3 6 4h80c2 0 5-2 6-4l1-19 4-8 62-74c1-2 4-3 7-3l52-2h239l100 4c14 1 29 4 44 7Z"/><path style="opacity:.973" fill="#b0b0b0" d="m37 751-2 12v-4c0-3 0-6 2-8Z"/><path style="opacity:1" fill="#d7d5d6" d="M1569 768v4c-4 1-7 1-8-3l1-2c2-1 4-1 7 1Z"/><path style="opacity:1" fill="#9d9c9d" d="M1569 772v-4c8-3 15-1 22 5h-20l-2-1Z"/><path style="opacity:.514" fill="#434343" d="M35 759v4c-4 5-5 12-5 19v2l-2 3c0-10 2-20 7-28Z"/><path style="opacity:1" fill="#5b5a5b" d="M544 770v2c-15 5-30 6-45 2 14-5 29-7 45-4Z"/><path style="opacity:1" fill="#949293" d="m1551 768 8 1-229 1 221-2Z"/><path style="opacity:.725" fill="#8e8e8e" d="M35 763Z"/><path style="opacity:.494" fill="#595959" d="m1934 769 3 5 7 40-2-3-8-42Z"/><path style="opacity:.847" fill="#a3a3a3" d="m30 784-3 14 1-8v-3l2-3Z"/><path style="opacity:.449" fill="#3e3e3e" d="m28 790-1 8v2c-3 4-4 10-3 16l-2 2c-1-10 1-20 6-28Z"/><path style="opacity:.749" fill="#9a9a9a" d="m27 800-3 16c-1-6 0-12 3-16Z"/><path style="opacity:.784" fill="#a1a1a1" d="m1942 811 2 3v3l1 8-3-14Z"/><path style="opacity:.698" fill="#7b7b7b" d="M24 816a301968 301968 0 0 1-2 2l2-2Z"/><path style="opacity:.412" fill="#3e3e3e" d="M1944 817c2 3 4 8 4 13l1 15-2-3-2-17-1-8Z"/><path style="opacity:.749" fill="#646464" d="m19 842-1 14-2 7 1-14 2-7Z"/><path style="opacity:.718" fill="#717171" d="m1947 842 2 3 2 17-2-7-2-13Z"/><path style="opacity:.305" fill="#0f0f0f" d="m1948 830 3 7a1002 1002 0 0 1 8 100l-1-1a1137 1137 0 0 0-7-74l-2-17-1-15Z"/><path style="opacity:.314" fill="#111" d="m44 718-7 29v4c-2 2-2 5-2 8-5 8-7 18-7 28v3c-5 8-7 18-6 28l-3 23v1l-2 7-5 31a9900 9900 0 0 0 2 207 2758 2758 0 0 0 15 96v11a280 280 0 0 1 16 58c-8-18-13-37-17-56-8-38-14-76-18-114V881a969 969 0 0 1 34-163Z"/><path style="opacity:.89" fill="#b4b4b4" d="m1949 855 2 7v8c-2-5-3-10-2-15ZM18 856l-2 15v-8l2-7Z"/><path style="opacity:.612" fill="#515151" d="m1951 862 3 24-2-6-1-10v-8Z"/><path style="opacity:1" fill="#676667" d="M1688 880c-3 0-3 1-1 2l-2 1-30-1c6-5 13-7 22-5l11 3Z"/><path style="opacity:1" fill="#ccc9cc" d="M1688 880c1 1 2 2 2 5 1 7 0 14-2 21-3-2-4-4-5-6-1-6 0-12 2-17l2-1c-2-1-2-2 1-2Z"/><path style="opacity:1" fill="#b3b2b3" d="m993 887 9-1 26 1-14 3-21-3Z"/><path style="opacity:.525" fill="#363636" d="m17 849-1 14v8c-2 3-3 6-3 10a7322 7322 0 0 0-1-1l5-31Z"/><path style="opacity:.686" fill="#767676" d="m16 871-2 13v191a1370 1370 0 0 0 0 12 7322 7322 0 0 1 2-216Z"/><path style="opacity:.808" fill="#9c9c9c" d="m1952 880 2 6 3 51h-1l-4-57Z"/><path style="opacity:.539" fill="#4a4a4a" d="m1954 886 2 17 2 33v22c-1-7-2-14-1-21l-3-51Z"/><path style="opacity:1" fill="#cccaca" d="M682 905c4-1 8 0 12 3a2234 2234 0 0 1 136 88 658 658 0 0 1-148-91Z"/><path style="opacity:1" fill="#d3d0d2" d="M1683 908c3-1 6 1 7 5l-10 37c-19 89-71 153-153 191l-47 18c-17 5-34 7-50 5l-1-1c38-9 75-22 110-40 80-47 127-117 140-210l4-5Z"/><path style="opacity:.685" fill="#6e6e6e" d="M1958 961a370 370 0 0 1-1 75v-22l1-53Z"/><path style="opacity:.896" fill="#c5c5c5" d="M1956 937h1c-1 7 0 14 1 21v3a701 701 0 0 1-2-24Z"/><path style="opacity:1" fill="#bbb8ba" d="M906 974c1 1 2 2 5 2-6 15-15 28-25 40l-7 5-1-3a87808 87808 0 0 0 28-44Z"/><path style="opacity:1" fill="#343133" d="m878 1018 1 3c0 5-2 8-6 11-2-6-1-11 5-14Z"/><path style="opacity:1" fill="#6b6a6b" d="M925 1018c-1 6-2 12-6 19l-13 16c-2-3-2-5-1-7l20-28Z"/><path style="opacity:1" fill="#333031" d="M867 1033h3l-3 9c-5 2-9 5-13 9l-1-2 14-16Z"/><path style="opacity:1" fill="#b8b4b6" d="M1094 1043h4l8 12c1 2 2 5 1 8-7-5-12-12-13-20Z"/><path style="opacity:.361" fill="#262626" d="m1958 936 1 1 2 53a1582 1582 0 0 1-9 121l-1 1 1-18v-2l1-2 4-54a494 494 0 0 0 1-75v-25Z"/><path style="opacity:.592" fill="#797979" d="M1957 1036Z"/><path style="opacity:1" fill="#6a696a" d="M871 1093c1 3 0 6-2 10l-19 17v-4c8-7 15-15 21-23Z"/><path style="opacity:.655" fill="#868686" d="m1952 1094-1 18v3l-3 8c0-10 2-20 4-29Z"/><path style="opacity:.682" fill="#8a8a8a" d="m1948 1124-2 20-5 21c1-14 4-28 7-41Z"/><path style="opacity:1" fill="#9e9d9e" d="M1740 1193c0-3-1-5-3-5 1-13 3-25 6-36 1-2 1-2 2 0 2 5 2 11 1 17l-6 24Z"/><path style="opacity:.445" fill="#373737" d="m20 1136 6 24 3 23-4-10-5-37Z"/><path style="opacity:.302" fill="#141414" d="M1951 1115a950 950 0 0 1-120 354l3-9 3-3a778 778 0 0 0 43-87l3-5a1382 1382 0 0 0 63-221l2-20v-1l3-8Z"/><path style="opacity:1" fill="#5b5a5b" d="M1287 1162c21 0 43 3 66 7-17 4-34 3-50-2l-16-5Z"/><path style="opacity:.659" fill="#909090" d="M26 1160a1008 1008 0 0 1 3 24v-1l-3-23Z"/><path style="opacity:1" fill="#d2d0d1" d="M1366 1167c13-1 26 0 39 2l-10 2a359 359 0 0 1-39-1c3-2 6-3 10-3Z"/><path style="opacity:.525" fill="#505050" d="m1946 1144-4 27-11 50v-8a895 895 0 0 0 15-69Z"/><path style="opacity:.482" fill="#363636" d="M29 1184c1 5 2 10 5 15v8l-5-13v-10Z"/><path style="opacity:.596" fill="#6e6e6e" d="m34 1201 2 11c-2-2-2-4-2-5v-6Z"/><path style="opacity:1" fill="#5d5c5d" d="M1146 1214c5 15 3 30-7 44-3 3-5 3-6 0l4-8 9-36Z"/><path style="opacity:1" fill="#c8c3c6" d="M1737 1188c2 0 3 2 3 5-2 15-5 30-10 44-11 62-30 122-58 179-15 26-32 51-52 75 39-59 67-122 86-189a1925 1925 0 0 0 31-114Z"/><path style="opacity:1" fill="#d3d0d2" d="M932 1246c6-1 12 0 19 1v3l-25 10c-3 1-6 2-9 1-3-2-3-4-1-6 5-5 10-8 16-9Z"/><path style="opacity:.537" fill="#676767" d="m36 1212 19 66v4a794 794 0 0 1-19-70Z"/><path style="opacity:.529" fill="#6a6a6a" d="M1931 1213v8l-16 54v-4l16-58Z"/><path style="opacity:.686" fill="#919191" d="M1915 1271v4a636 636 0 0 0-18 53l-6 13c7-24 15-47 24-70Z"/><path style="opacity:.494" fill="#414141" d="M1915 1275Z"/><path style="opacity:.686" fill="#939393" d="M55 1278a1854 1854 0 0 1 0 4v-4Z"/><path style="opacity:.494" fill="#414141" d="M55 1282Z"/><path style="opacity:.297" fill="#181818" d="M45 1252a794 794 0 0 0 26 72l9 29 9 16 3 11c-3-3-4-5-4-8-3-1-5-2-5-4a1061 1061 0 0 1-38-116Z"/><path style="opacity:.659" fill="#878787" d="M71 1324Z"/><path style="opacity:.42" fill="#484848" d="M1897 1328a1382 1382 0 0 1-17 42v-4c2-9 6-18 11-25l6-13Z"/><path style="opacity:.631" fill="#838383" d="m89 1369 11 25-8-14-3-11Z"/><path style="opacity:.62" fill="#7c7c7c" d="M1880 1366v4l-10 19c2-8 6-16 10-23Z"/><path style="opacity:1" fill="#d3d2d3" d="M1119 1399v3c-15-2-30-2-44 1-10 3-19 8-27 14-14 6-27 6-40 0-11-7-23-13-34-18 3-2 6-3 10-3l25 6h35l31-8c14-2 28-1 43 3l1 2Z"/><path style="opacity:.624" fill="#767676" d="m1870 1389-4 10c0-4 1-8 4-10Z"/><path style="opacity:.588" fill="#7b7b7b" d="M100 1394c3 4 5 9 7 15-4-5-6-10-7-15Z"/><path style="opacity:1" fill="#a4a2a3" d="M1119 1399c21 4 40 13 59 24h11l16 4 2 2c-6 2-12 2-17 1a961 961 0 0 1-71-28v-3Z"/><path style="opacity:.573" fill="#6d6d6d" d="M107 1409c5 9 10 18 14 29-6-9-11-19-14-29Z"/><path style="opacity:1" fill="#d8d7d8" d="m1074 1444 1 9-27 21c-15 7-29 5-42-4l-33-23c-30-15-61-20-94-17l-25 3v-5l61-15c20-2 40 2 58 13 12 10 26 18 42 23 7 1 15 2 23 1a619 619 0 0 0 36-6Z"/><path style="opacity:.604" fill="#6d6d6d" d="M1866 1399Z"/><path style="opacity:1" fill="#6c6b6c" d="M854 1428v5c-6 2-12 2-17 1-1-3 0-5 3-6h14Z"/><path style="opacity:1" fill="#383436" d="m1075 1453-1-9c3-2 7-2 11-1l1 2c-3 4-6 7-11 8Z"/><path style="opacity:.301" fill="#151515" d="m92 1380 8 14c1 5 3 10 7 15 3 10 8 20 14 29h1v4l22 40-5-3a914 914 0 0 1-45-92c-2-3-3-5-2-7Z"/><path style="opacity:.573" fill="#686868" d="m1834 1460-3 9-31 50-14 18 48-77Zm-1712-22a1124 1124 0 0 0 66 112 1240 1240 0 0 1-66-108v-4Z"/><path style="opacity:.706" fill="#7c7c7c" d="m1786 1537-1 4-14 17c4-8 9-15 15-21Z"/><path style="opacity:1" fill="#c4c2c5" d="M1594 1511c2 0 4 2 6 4l-10 15-22 20-3 1a6404 6404 0 0 1-156 148c-3-3-3-6 0-9l10-9 4-1c45-46 92-91 140-134l31-35Z"/><path style="opacity:.494" fill="#636363" d="M193 1553c3 3 6 6 8 11-4-2-6-4-8-7v-4Z"/><path style="opacity:.482" fill="#626262" d="m201 1564 20 26-8-6-12-16v-4Z"/><path style="opacity:.486" fill="#656565" d="m221 1590 13 16-13-12v-4Z"/><path style="opacity:.294" fill="#222" d="M1751 1587c-2 6-5 11-9 15-8 4-12 9-13 16l-9 7a954 954 0 0 1 31-38Z"/><path style="opacity:.467" fill="#626262" d="m234 1606 25 29-15-13c-3-5-6-9-10-12v-4Z"/><path style="opacity:.647" fill="#8f8f8f" d="m259 1635 9 10-9-10Z"/><path style="opacity:.439" fill="#414141" d="M268 1647a2553 2553 0 0 1 45 43v2a901 901 0 0 1-45-45Z"/><path style="opacity:.71" fill="#9e9e9e" d="M268 1645a1440 1440 0 0 1 0 2v-2Z"/><path style="opacity:.285" fill="#151515" d="M193 1557c2 3 4 5 8 7v4l12 16 8 6v4l13 12v4c4 3 7 7 10 12a268 268 0 0 1 24 23v4a901 901 0 0 0 65 60l3 4-15-9a1150 1150 0 0 1-128-147Z"/><path style="opacity:.431" fill="#272727" d="M1695 1652a731 731 0 0 1-54 53c17-18 35-36 54-53Z"/><path style="opacity:.686" fill="#7f7f7f" d="m313 1690 8 8-8-6v-2Z"/><path style="opacity:.293" fill="#141414" d="m1650 1698-1 3a995 995 0 0 1-153 114c3-4 8-7 14-8v-3l5-4c3-1 6-2 8-5l13-8 48-34a486 486 0 0 0 66-55Z"/><path style="opacity:.686" fill="#787878" d="M321 1698Z"/><path style="opacity:.659" fill="#777" d="m333 1709 10 9-7-5-3-4Z"/><path style="opacity:.478" fill="#333" d="M1641 1705Z"/><path style="opacity:1" fill="#bab7b9" d="m1348 1754-3-3a319 319 0 0 1 53-46v3l-14 15-3 1-33 30Z"/><path style="opacity:.851" fill="#9f9f9f" d="M345 1719c3 1 6 4 9 8h-2l-7-8Z"/><path style="opacity:.69" fill="gray" d="M1771 1558a687 687 0 0 1-76 94c-19 17-37 35-54 53l-57 48a2663 2663 0 0 1-61 42c96-65 178-144 248-237Z"/><path style="opacity:.29" fill="#1b1b1b" d="M352 1727h2l13 11c1 2 3 4 6 5 3 4 6 8 11 11l4 1c0 1 1 2 3 2v3c-14-8-26-16-36-27l2-1c-3-1-5-3-5-5Z"/><path style="opacity:.796" fill="#909090" d="M367 1738c2 0 4 2 6 5-3-1-5-3-6-5Z"/><path style="opacity:.494" fill="#666" d="m373 1743 15 12-4-1c-5-3-8-7-11-11Z"/><path style="opacity:1" fill="#9f9e9f" d="m1345 1751 3 3c-8 10-19 17-31 20 8-9 17-17 28-23Z"/><path style="opacity:.502" fill="#6f6f6f" d="m391 1757 16 10 3 4-5-2-14-9v-3Z"/><path style="opacity:.404" fill="#414141" d="m405 1769 5 2 12 8 7 7c-10-4-18-9-24-17Z"/><path style="opacity:.835" fill="#848484" d="M438 1791c7 3 13 7 20 13l-4-1-15-10c-1-1-2-1-1-2Z"/><path style="opacity:.388" fill="#2e2e2e" d="m431 1786 7 5c-1 1 0 1 1 2l15 10 4 1 9 6-6-1-23-14c-3-3-6-6-7-9Z"/><path style="opacity:.561" fill="#797979" d="M1523 1795c-2 3-5 4-8 5 2-3 4-5 8-5Z"/><path style="opacity:.447" fill="#4d4d4d" d="m467 1810 18 9 10 8-5-1c-10-4-18-9-23-16Z"/><path style="opacity:.62" fill="#7e7e7e" d="m1515 1800-5 4v3c-6 1-11 4-14 8a1337 1337 0 0 0-62 34l-30 14 111-63Z"/><path style="opacity:.616" fill="#5a5a5a" d="m495 1827 14 8c-6-1-11-4-14-8Z"/><path style="opacity:1" fill="#dddbdd" d="m819 1837 53 39c41 26 86 39 135 41-6 10-14 16-25 17a252 252 0 0 1-157-80c-3-6-5-11-6-17Z"/><path style="opacity:.291" fill="#191919" d="M1477 1826c-2 1-4 3-5 6-26 15-53 28-80 41l-10 2c-1-1 0-2 1-2l6-3 15-7 30-14 43-23Z"/><path style="opacity:.659" fill="#626262" d="M509 1835a1532 1532 0 0 0 58 31l-53-26-5-5Z"/><path style="opacity:.286" fill="#151515" d="m490 1826 5 1c3 4 8 7 14 8l5 5a1948 1948 0 0 1 61 28c2 3 6 4 11 5l7 5 3 1c5 3 10 6 17 7l28 10 2 2c-11-1-21-4-29-10a1192 1192 0 0 1-118-58c-3-1-5-2-6-4Z"/><path style="opacity:.671" fill="#888" d="m1404 1863-15 7c4-4 9-6 15-7Z"/><path style="opacity:.741" fill="#929292" d="M575 1868c4 0 7 2 11 5-5-1-9-2-11-5Z"/><path style="opacity:.639" fill="#7a7a7a" d="M586 1873c6 1 11 3 17 7l-7-1-3-1-7-5Z"/><path style="opacity:.725" fill="#989898" d="m1375 1876-7 4c-2 0-4 0-5 2l-7 2c5-4 12-7 19-8Z"/><path style="opacity:.471" fill="#484848" d="m1389 1870-6 3c-1 0-2 1-1 2l-10 5h-4l7-4c4-4 8-6 14-6Z"/><path style="opacity:.486" fill="#414141" d="m596 1879 7 1c2 2 5 3 9 4l1 2c-7-1-12-4-17-7Z"/><path style="opacity:.678" fill="#7d7d7d" d="M612 1884c10 2 19 6 29 12l-28-10-1-2Z"/><path style="opacity:.725" fill="#9a9a9a" d="m1341 1890-13 5c3-4 8-5 13-5Z"/><path style="opacity:.288" fill="#141414" d="M1368 1880h4a1074 1074 0 0 1-102 40l-19 2v-1l48-14a1708 1708 0 0 0 69-27Z"/><path style="opacity:.51" fill="#4d4d4d" d="m1363 1882-3 2-61 23a428 428 0 0 1 12-6c0-1 1-2 3-1l14-5 13-5 1-2 14-4 7-2Z"/><path style="opacity:.788" fill="#818181" d="M641 1896c3-1 5 0 8 3l-6-1-2-2Z"/><path style="opacity:.761" fill="#a5a5a5" d="m1328 1895-14 5c4-3 8-5 14-5Z"/><path style="opacity:.327" fill="#2b2b2b" d="m643 1898 6 1c3 2 6 4 11 4l6 1 10 5-27-7c-3-1-5-2-6-4Z"/><path style="opacity:.725" fill="#777" d="M649 1899c3 0 6 0 9 2l2 2c-5 0-8-2-11-4Z"/><path style="opacity:.737" fill="#898989" d="M666 1904c6 1 13 4 20 7h-4l-6-2-10-5Z"/><path style="opacity:.447" fill="#434343" d="M682 1911h4c4 0 9 2 14 4l12 4 9 3 9 4h-4a709 709 0 0 1-44-15Z"/><path style="opacity:.867" fill="#aeaeae" d="M700 1915c4 0 8 1 12 4l-12-4Z"/><path style="opacity:.773" fill="#989898" d="m1311 1901-60 20v1a577 577 0 0 1-21 3l81-24Z"/><path style="opacity:.702" fill="#7e7e7e" d="M721 1922c8 0 15 2 23 6a41 41 0 0 1-23-6Z"/><path style="opacity:.635" fill="#6b6b6b" d="M744 1928c6 1 13 2 20 5l-18-3-2-2Z"/><path style="opacity:.6" fill="#787878" d="m1224 1928-9 3h-4c3-3 8-4 13-3Z"/><path style="opacity:.796" fill="#929292" d="M764 1933c5-1 11 0 16 3l-8-1-8-2Z"/><path style="opacity:.702" fill="#9a9a9a" d="M1211 1931Z"/><path style="opacity:.651" fill="#4e4e4e" d="m772 1935 8 1h1a204 204 0 0 0 52 9l5 3a617 617 0 0 1-66-13Z"/><path style="opacity:.784" fill="#9f9f9f" d="M781 1936Z"/><path style="opacity:.287" fill="#161616" d="M726 1926h4l14 2 2 2 18 3 8 2 1 1c21 5 43 9 65 12h1l2 2-30-5-4 1-51-11-26-6-4-3Z"/><path style="opacity:.733" fill="#a3a3a3" d="m1164 1940-13 3 2-2 11-1Z"/><path style="opacity:.663" fill="#818181" d="m1151 1943-37 6c12-3 24-5 37-6Z"/><path style="opacity:.647" fill="#595959" d="M839 1948c10 0 21 1 32 4h-7c-8-2-16-3-23-2l-2-2Z"/><path style="opacity:.859" fill="#b0b0b0" d="m833 1945 72 9-31-2h-3c-11-3-22-4-32-4h-1l-5-3Z"/><path style="opacity:.847" fill="#b5b5b5" d="m1098 1950-26 3c8-2 17-3 26-3Z"/><path style="opacity:.729" fill="#6e6e6e" d="m874 1952 31 2v1l-31-3Z"/><path style="opacity:.694" fill="#707070" d="M907 1955h16l21 2h-22l-15-2Z"/><path style="opacity:.882" fill="#c1c1c1" d="M923 1955a3273 3273 0 0 0 21 2l-21-2Z"/><path style="opacity:.285" fill="#1f1f1f" d="M864 1952h10l31 3h2l15 2v1c-4-1-7 0-10 1a1017 1017 0 0 0-48-7Z"/><path style="opacity:.722" fill="#7d7d7d" d="m1072 1953-15 2a1066 1066 0 0 1 15-2Z"/><path style="opacity:.434" fill="#3a3a3a" d="M1211 1931h4c-8 2-15 5-23 6a1363 1363 0 0 1-152 21H922v-1h22a1066 1066 0 0 0 154-7l16-1 37-6 13-3 9-1 38-8Z"/><path style="opacity:.271" fill="#101010" d="M1251 1922c-10 6-21 9-32 9a958 958 0 0 1-297 27 2715 2715 0 0 0 157-3 1363 1363 0 0 0 136-24l9-3a577 577 0 0 0 27-6Z"/></svg>