<svg xmlns="http://www.w3.org/2000/svg" width="2158" height="2158" shape-rendering="geometricPrecision" text-rendering="geometricPrecision" image-rendering="optimizeQuality" fill-rule="evenodd" clip-rule="evenodd"><path fill="#4d4c4c" d="m1233 29 1 2h-3c-14-3-28-5-42-5l-22-3a4598 4598 0 0 0-188 2h-11l16-3h187c20 1 41 3 62 7Z" opacity=".4"/><path fill="#807f7d" d="M1001 24Z" opacity=".7"/><path fill="#bfbebb" d="M1001 24c62-1 125 0 188 2 14 0 28 2 42 5l31 5a408 408 0 0 0 57 11l22 5 24 6 51 15a2194 2194 0 0 0 85 32c3 3 7 4 12 5l2 1a2555 2555 0 0 1 77 38v1l64 38a1375 1375 0 0 1 143 112 78784 78784 0 0 1 53 53 2980 2980 0 0 1 90 107 41626 41626 0 0 0 69 109l11 22a1147 1147 0 0 1 72 177l8 30 4 16 4 15 9 43v4c1 9 2 18 5 27v1l3 16 4 27a1056 1056 0 0 1 7 96 1141 1141 0 0 1-7 165v4c-2 4-3 9-2 14v1a4075 4075 0 0 1-31 149c-3 5-4 11-5 17-3 4-4 8-4 13a351 351 0 0 0-15 41 6537 6537 0 0 1-11 28l-5 16a43915 43915 0 0 0-18 40l-35 68a400 400 0 0 0-22 37c-4 4-8 10-10 16-4 4-7 8-9 14-8 9-15 18-20 29-10 11-20 24-29 37a1833 1833 0 0 0-57 67c-9 7-17 16-24 25l-8 8-61 56c-13 9-25 20-37 30-16 11-31 22-45 34-14 7-26 16-38 25a1138 1138 0 0 1-438 154h-1l-65 5a3672 3672 0 0 1-152-2h-2c-9-2-17-3-25-2h-1l-23-3a662 662 0 0 0-77-13h-1l-12-3-8-1-12-3c-16-5-33-9-49-12a285 285 0 0 1-55-18c-2-1-4-2-6-1l-2-2a1173 1173 0 0 0-47-18 1016 1016 0 0 0-57-26l-22-11a363 363 0 0 1-52-28c-3-4-6-5-10-6-7-5-13-9-20-12l-4-3a219 219 0 0 1-34-23c-9-7-18-13-25-20l-21-14a4125 4125 0 0 1-76-67 1304 1304 0 0 0-63-65l-12-14a374 374 0 0 0-37-44 2734 2734 0 0 1-67-98l-9-15-9-16c-2-5-4-10-7-13-3-8-7-15-11-21l-12-24c-1-5-3-8-5-11l-10-23-14-33a179558 179558 0 0 0-31-91l-5-17-1-5a2418 2418 0 0 1-29-154l-3-30v-12a2021 2021 0 0 1 1-194v-1l2-15v-2c1-16 3-31 7-46v-4l5-26v-1l1-2a585 585 0 0 0 9-46 1686 1686 0 0 1 33-110 668 668 0 0 1 30-73c4-11 8-21 13-30v-1a138 138 0 0 0 22-41 1028 1028 0 0 0 39-65l4-5a277 277 0 0 1 24-37 1623 1623 0 0 1 73-89 969 969 0 0 1 155-145l26-19 2-1 8-4c3-4 7-7 11-9l3-2c2-3 6-4 10-5l7-6 14-8c1-2 3-2 6-3l10-8 16-8 9-4 3-3c11-8 24-14 37-19l21-11 4-1 17-8 16-6 5-3a918 918 0 0 1 120-43h4c10-2 20-4 30-8a1357 1357 0 0 0 96-18l27-3a1292 1292 0 0 1 58-5Z"/><path fill="#595958" d="m963 25-20 4a444 444 0 0 1 20-4Z" opacity=".5"/><path fill="#8a8a88" d="M963 25h16a1292 1292 0 0 0-16 0Z" opacity=".7"/><path fill="#848482" d="M1231 31h3a306 306 0 0 1-3 0Z" opacity=".5"/><path fill="#696866" d="m916 32-37 7 11-4 26-3Z" opacity=".4"/><path fill="#7d7d7a" d="M1262 36Z" opacity=".5"/><path fill="#494948" d="M1235 27h9c27 3 55 8 82 15v1l-14-2-2 1c5 1 10 2 16 5h-7l-14-3c-14-4-29-7-43-8-10-3-19-4-28-5l-1-2 2-2Z" opacity=".1"/><path fill="#777674" d="M1319 47h7l12 3 3 2-22-5Z" opacity=".4"/><path fill="#444443" d="m877 33-7 4 2 1a26374 26374 0 0 1 7 1 462 462 0 0 0-89 19h-12c1-2 2-3 4-3l12-3 3-2c26-8 52-13 80-17Z" opacity=".1"/><path fill="#686766" d="m879 39-59 11c-10 4-20 6-30 8l12-5c25-7 50-12 77-14Z" opacity=".6"/><path fill="#1c1c1c" d="m1326 43 35 8v3c-8-3-16-4-23-4l-12-3c-6-3-11-4-16-5l2-1 14 2Z" opacity=".1"/><path fill="#4d4c4b" d="M1338 50c7 0 15 1 23 4v-3h4c1-1 2 0 4 1l3 2h-10l7 4h-4l-24-6-3-2Z" opacity=".1"/><path fill="#212121" d="M1372 54h2l5 3-5 2c-2-1-4-2-5-1l-7-4h10Z" opacity=".2"/><path fill="#494948" d="M778 55h4c-2 0-3 1-4 3h8a2920 2920 0 0 1-35 11l1-2 21-6c5-3 5-4-1-3-6 3-12 4-17 5l3-2c0-1 1-2 3-1l10-3 7-2Z" opacity=".1"/><path fill="#6c6b69" d="M1365 58h4a381 381 0 0 0 33 9c4 2 8 4 14 5v1l-51-15Z" opacity=".3"/><path fill="#292929" d="M1374 54h2c1-1 2 0 4 1l7 2c1-1 2 0 3 1l7 2c1 2 3 3 6 3l7 1c3 3 7 4 12 5 2 0 4 0 7 2 1 1 2 3 5 4l-2 1c-6-2-11-4-16-4-6-1-10-3-14-6l-28-7 5-2-5-3Z" opacity=".1"/><path fill="#7c7b79" d="M1416 73Z" opacity=".5"/><path fill="#1f1f1f" d="M751 69a727 727 0 0 0-40 9l24-9c2-2 4-2 7-2l8-3 5-1c5-1 11-2 17-5 6-1 6 0 1 3a376 376 0 0 0-22 8Z" opacity=".1"/><path fill="#343434" d="m1429 71 14 4 11 4 8 3c1 1 2 2 5 2 1 1 2 2 5 2l2 1v1l5 1 7 3 7 3 7 3 7 3c1 1 2 2 5 2l2 2 7 2 7 3 2 1v1l-13-4v3h-2l-2-1-8-5h-4l-2-1-15-8-8-1-10-4-7-5c-15-5-29-10-43-13v-1c5 0 10 2 16 4l2-1c-3-1-4-3-5-4Z" opacity=".1"/><path fill="#696866" d="m768 65-26 7a1411 1411 0 0 0-37 12l5-3a727 727 0 0 1 58-16Z" opacity=".7"/><path fill="#2b2b2b" d="m735 69-24 9c-1 1-2 2-1 3l-5 3-10 3-2 3a918 918 0 0 0-47 18c-4 0-7 1-9 3l-2-1 2-2a165 165 0 0 0 35-15l2-2 5-2c2 0 5-1 7-3 2 0 5-1 7-3l22-8 20-6Z" opacity=".1"/><path fill="#191919" d="m1474 88 9 5c-6 0-10-1-13-4 1-1 2-2 4-1Z" opacity=".1"/><path fill="#70706e" d="m1476 95 8 1 15 8-23-9Z" opacity=".5"/><path fill="#696866" d="m666 101-5 3-16 6 1-2 20-7Z" opacity=".5"/><path fill="#6d6c6b" d="M1501 105h4l8 5c-5-1-9-2-12-5Z" opacity=".5"/><path fill="#575755" d="m624 119-21 11c2-4 5-6 10-7 3-3 6-4 11-4Z" opacity=".3"/><path fill="#6d6c6a" d="M1515 111h2l57 27 5 4-4-1-60-30Z" opacity=".4"/><path fill="#262626" d="M1530 112c3 1 5 4 8 7h5a262 262 0 0 0 37 17v5l-6-3-57-27v-3l13 4Z" opacity=".1"/><path fill="#040304" d="M1329 159a1058 1058 0 0 1-280 120l2 1 17-3a514 514 0 0 0 268-109l2 1c0 14 2 28 6 42 5 11 13 19 24 24 17 8 35 14 55 18l68 7v3l-18 9-52 19c35 10 72 16 110 17 35 1 70-1 105-3a886 886 0 0 1 74 61c-31 32-63 62-98 88 7-2 15-4 23-8 33-18 62-42 86-71l10 7a954 954 0 1 1-747-253h187c53 5 106 15 158 30Z"/><path fill="#494948" d="m1574 138 6 3v-3l11 4 2 1v1l-10-4-1 1 10 8c-6-2-10-4-13-7l-5-4Z" opacity=".1"/><path fill="#848381" d="m566 149-3 3-9 4c3-4 7-6 12-7Z" opacity=".9"/><path fill="#1d1d1d" d="M1593 144v1l36 20h1l8 6-1 3-35-21-10-3v-1l-10-8 1-1 10 4Z" opacity=".1"/><path fill="#e2e0e1" d="m1329 159 35 9v3c-3 7-5 14-6 22 0 8 4 15 12 19 37 18 77 27 119 29l47 1 9 5c-20 17-42 30-66 39-1 0-2 1-1 3l51 2 84-2c8 4 15 9 23 16-35 2-70 4-105 3-38-1-75-7-110-17l52-19 18-9v-3l-68-7c-20-4-38-10-55-18-11-5-19-13-24-24-4-14-6-28-6-42l-2-1-63 41c-64 37-133 60-205 68-1-2 0-4 1-5 91-27 178-64 260-113Z"/><path fill="#565554" d="m538 164-10 8c-3 1-5 1-6 3 4-6 9-9 16-11Z" opacity=".4"/><path fill="#060506" d="m1536 242-47-1c-42-2-82-11-119-29-8-4-12-11-12-19 1-8 3-15 6-22l2-2c59 18 115 43 170 73Z"/><path fill="#575756" d="m1592 150 10 3 35 21 1-3h3c0 1 1 2 3 2v1l-4-1c-2 1-2 2 0 3a1534 1534 0 0 0-48-26Z" opacity=".3"/><path fill="#252525" d="m1644 174 3 1 2 1c0 1 1 2 3 2 0 1 1 2 3 2 0 1 1 2 3 2 0 1 1 2 3 2l2 2 4 3c1 1 1 2-1 3l-6-4h-4c-5-5-10-9-16-12-2-1-2-2 0-3l4 1Z" opacity=".1"/><path fill="#4f4f4e" d="m508 183-7 6c-4 1-8 2-10 5 4-5 10-9 17-11Z" opacity=".4"/><path fill="#232322" d="m1679 197 6 3c0 1 1 2 3 2l1 2c0 3-1 3-4 1l-9-6c-2-1-2-2 0-3l3 1Z" opacity=".1"/><path fill="#252524" d="m628 118-4 1c-5 0-8 1-11 4-5 1-8 3-10 7a322 322 0 0 0-49 26l-16 8c-7 2-12 5-16 11l-14 8c-7 2-13 6-17 11l-3 2c-5 1-9 3-12 6-3 2-6 4-7 7l-2 1a486 486 0 0 0-76 59c-37 31-72 64-103 101-2-1-3-2-2-3l6-8 5-4 13-15 28-27 16-16 10-9 8-7 8-7 8-7a3067 3067 0 0 1 92-71l6-5 3-2 3-2 3-2 3-2h2l6-5 3-2 3-2 5-3 3-2 5-3 3-2 5-3 3-2a292 292 0 0 0 11-6l5-3c0-1 1-2 2-1l7-4c0-1 1-2 2-1l9-4 8-4 13-7 8-4 12-7 9-3 11-4v3c-3 0-4 1-5 4Z" opacity=".1"/><path fill="#525251" d="M488 196c-4 2-8 5-11 9l-8 4c1-3 4-5 7-7 3-3 7-5 12-6Z" opacity=".3"/><path fill="#1d1c1c" d="m1694 208 4 1c0 2 2 3 4 4 0 1 0 2 2 3h-3l-9-6c-2-3-1-4 2-2Z" opacity=".1"/><path fill="#535351" d="m467 210-26 19a1409 1409 0 0 0 26-19Z" opacity=".4"/><path fill="#444443" d="M1656 188h4l6 4c2-1 2-2 1-3h2c0 1 1 2 3 2 0 1 1 2 3 2 0 1 1 2 3 2l1 2-3-1c-2 1-2 2 0 3l9 6c3 2 4 2 4-1h2c0 1 1 2 3 2v2c-3-2-4-1-2 2l9 6h3c-2-1-2-2-2-3l3 1 4 3v2l-4-2c-1 1-1 2 1 3l16 12h3c-2-1-2-2-2-3l3 1 4 3c0 2 2 3 5 4 0 2 2 3 5 4v2c-1-1-2 0-2 1l6 8c-29-23-58-44-88-64Z" opacity=".1"/><path fill="#222" d="m1709 219 4 1 4 3c0 2 2 3 5 4l1 2c0 1 0 2 2 3h-3l-16-12c-2-1-2-2-1-3l4 2Z" opacity=".1"/><path fill="#060506" d="M1545 247c23 12 46 26 68 42a3490 3490 0 0 1-135 0c-1-2 0-3 1-3 24-9 46-22 66-39Z"/><path fill="#4e4e4d" d="m1744 252 5 1 9 11-14-12Z" opacity=".2"/><path fill="#9c9a9c" d="M1069 272c-1 1-2 3-1 5l-17 3-2-1c1-3 3-5 7-6s8-2 13-1Z"/><path fill="#676765" d="M1781 284c3 1 6 4 9 8-4-2-7-5-9-8Z" opacity=".4"/><path fill="#585756" d="M399 265Z" opacity=".5"/><path fill="#6d6c6a" d="M1790 292c3 1 6 4 9 8-4-2-7-5-9-8Z" opacity=".4"/><path fill="#6c6c6a" d="M1799 300c9 7 17 15 26 25-10-8-18-16-26-25Z" opacity=".4"/><path fill="#5c5b5a" d="M1825 325Z" opacity=".3"/><path fill="#e0dfdf" d="M1710 366c5 1 8 4 11 9-24 29-53 53-86 71-8 4-16 6-23 8 35-26 67-56 98-88Z"/><path fill="#3a3a39" d="M285 367h1c-1 1 0 2 2 3-2 1-2 2-2 4l-14 16 5-8v-3l-2 2 3-6 3-2 4-6Z" opacity=".1"/><path fill="#232323" d="M272 390a114712 114712 0 0 1-59 73l-7 10a575 575 0 0 0-7 3v-2l7-10 5-7 3-4 3-4 3-4 4-5 3-4 3-4 3-4 3-4c2 0 3-1 3-3l2-3c2 0 3-1 3-3l2-3c2 0 3-1 3-3l2-3c3-2 6-5 7-8 3-2 5-4 6-7l3-2 4-6 4-2 2-2v3l-5 8Z" opacity=".1"/><path fill="#5a5958" d="M272 390Z" opacity=".6"/><path fill="#595958" d="M1917 427c4 3 8 7 10 13-5-4-8-8-10-13Z" opacity=".2"/><path fill="#2a2a2a" d="m1740 243 6 3c1 3 3 5 7 6 1 3 3 5 7 6 0 2 2 4 5 5 0 1 1 2 3 2 0 2 2 4 5 5 0 1 1 2 3 2 0 2 2 4 5 5 0 1 1 2 3 2 0 2 2 4 5 5 0 1 1 2 3 2 0 2 2 4 5 5 0 1 1 2 3 2 3 5 7 9 12 12 0 2 1 4 4 4l13 12c2 4 5 7 10 11l9 9c0 2 1 4 4 4l2 2 12 13c1 3 3 5 7 8l2 2c0 2 2 4 5 6l2 2c0 2 2 4 5 6l2 2c0 2 1 3 4 5 1 3 3 5 7 8l2 2 3 4 4 4c-1 1 0 2 2 3l2 2 3 4c2 1 4 3 5 6 0 2 2 4 5 6 0 2 1 3 3 4 0 2 1 3 3 4-1 1 0 2 2 3 0 2 1 3 4 4v1c0 2 1 3 3 3v1c0 2 1 3 3 3v1c0 2 1 3 3 3v1c0 2 1 3 3 3v1c1 4 3 7 7 10 4 8 9 16 16 24-1 1 0 2 2 3l1 2 6 9c-1 1 0 2 2 3l1 2c2 6 5 12 10 18l2 1v2l1 3-3 1c0-4-2-7-5-8l-6-11-3-2a41626 41626 0 0 1-54-79 2980 2980 0 0 0-102-115 229 229 0 0 0-35-33c-3-4-6-7-9-8a164 164 0 0 1-32-31l-5-1-6-8c0-1 1-2 2-1Z" opacity=".1"/><path fill="#474745" d="M206 473c-6 8-12 17-17 27l-4 5c3-8 6-14 11-20l2-4h-2c0-2 1-4 3-5l1 2 6-5Z" opacity=".3"/><path fill="#242424" d="M185 505a2118 2118 0 0 0-17 28c-4 1-6 3-7 7l-15 30c-2 2-3 5-4 9l-5 3c-3 8-7 15-12 23l-1 6v1l-3 2-6 16-3 2-4 15a20673 20673 0 0 0-15 32l-4 11c-2 1-3 0-3-1a1597 1597 0 0 1 69-146l5-6a1199 1199 0 0 1 25-42l11-14h2l-2 4c-5 6-8 12-11 20Z" opacity=".1"/><path fill="#626160" d="M178 517Z" opacity=".4"/><path fill="#424241" d="m1981 519 3 2 6 11c3 1 5 4 5 8l3-1-1-3 2 1 1 2c-1 2 0 4 3 5l1 2c-1 2 0 4 3 5l1 2v2c-2 0-2 0-2 2l5 12-30-50Z" opacity=".1"/><path fill="#565654" d="m168 533-22 37 15-30c1-4 3-6 7-7Z" opacity=".5"/><path fill="#323232" d="M2008 555c0 3 2 5 5 7l1 2c-1 1 0 2 2 3-1 3 1 6 4 8l3 6c1 5 4 10 8 15l3 6 4 11c-1 2-2 2-3 1l-10-21-3-2a169 169 0 0 1-16-34c0-2 0-2 2-2Z" opacity=".1"/><path fill="#4c4b4a" d="M142 579a534 534 0 0 0-18 32l1-6c5-8 9-15 12-23l5-3Z" opacity=".3"/><path fill="#434342" d="m2022 591 3 2 10 21c1 1 2 1 3-1l2 5c-2 1-2 2-1 4l11 27-28-58Z" opacity=".1"/><path fill="#535251" d="M124 612a15156 15156 0 0 0-16 35l4-15 3-2 6-16 3-2Z" opacity=".3"/><path fill="#232323" d="M2040 618a854 854 0 0 1 46 117l-4-4-6-18-5-12a10895 10895 0 0 0-31-83Z" opacity=".1"/><path fill="#575654" d="m2050 649 4 7 5 15-9-22Z" opacity=".3"/><path fill="#4c4c4b" d="M96 677a668 668 0 0 0-10 18l-1-3-2 4v-4l3-3c0 1 1 2 3 1l4-11c0-1 1-2 3-2Z" opacity=".1"/><path fill="#6f6e6d" d="m2071 701 5 12c-3-4-5-8-5-12Z" opacity=".5"/><path fill="#6b6a69" d="m2076 713 6 18-6-18Z" opacity=".5"/><path fill="#676765" d="m78 724-8 23c0-4 0-8 2-11 1-5 3-9 6-12Z" opacity=".7"/><path fill="#424241" d="m2086 729 4 11-3-3v2c1 9 4 19 7 29-5-12-9-25-12-37l4 4v-6Z" opacity=".1"/><path fill="#30302f" d="m81 715-3 9c-3 3-5 7-6 12-2 3-2 7-2 11a1686 1686 0 0 0-32 126v1c-2 1-3 4-3 7l-2 19v4c-2 1-3 3-3 6-1-3-2-5-1-7l1-11a504 504 0 0 1 10-54v-2l2-7v-2l2-7v-2l2-7v-1l2-7v-1a2520 2520 0 0 0 28-91l4-11 3-4 2-4 1 3c-3 6-5 13-5 20Z" opacity=".1"/><path fill="#6e6d6b" d="M2102 798c3 4 4 10 4 16l-4-16Z" opacity=".6"/><path fill="#6e6e6c" d="m48 825-3 14c-1-6 0-10 3-14Z" opacity=".7"/><path fill="#e0dddf" d="m1646 863-221 2-200 3c-7 1-13 4-18 9l-47 58c-5 6-7 13-7 21-3 45 4 88 20 131l20 51h-4a547 547 0 0 1-56-126c-2-5-5-8-8-11-19 0-37-1-55-3-7 0-15 1-21 4-7 5-13 11-18 19a825 825 0 0 0-25 50c-3 0-4-1-5-2 13-27 22-55 26-84 2-17 0-32-6-47-8-20-20-38-35-52-20-13-42-20-66-20l-234-1-36 4-11-2v-2c2-2 5-4 9-5h37l19-5c91-4 183-5 275-1 4 1 7 4 10 8l49 67c6 8 8 18 7 29 1 2 3 3 6 4h80c2 0 5-2 6-4l1-19 4-8 62-74c1-2 4-3 7-3l52-2h239l100 4c14 1 29 4 44 7Z"/><path fill="#6b6b69" d="M45 839Z" opacity=".6"/><path fill="#5c5b5a" d="m2110 829 7 28 2 15-9-43Z" opacity=".4"/><path fill="#d7d5d6" d="M1664 863v4c-4 1-7 1-8-3l1-2c2-1 4-1 7 1Z"/><path fill="#9d9c9d" d="M1664 867v-4c8-3 15-1 22 5h-20l-2-1Z"/><path fill="#5b5a5b" d="M639 865v2c-15 5-30 6-45 2 14-5 29-7 45-4Z"/><path fill="#949293" d="m1646 863 8 1-229 1 221-2Z"/><path fill="#50504e" d="m38 874-5 26 2-19c0-3 1-6 3-7Z" opacity=".4"/><path fill="#656463" d="M2119 876c3 8 5 17 5 27-3-9-4-18-5-27Z" opacity=".5"/><path fill="#2c2c2b" d="M2090 740c0 3 2 6 4 9-1 2 0 4 2 6v1c-1 3 0 6 3 9-1 2 0 5 2 7-1 2 0 5 2 7-1 2 0 5 2 7v1c-1 2 0 4 2 6v1c-1 2 0 5 2 7v2c-1 2 0 5 2 7v1c-1 2 0 5 2 7v1c-1 4 0 8 3 12v2a738 738 0 0 1 12 64v10l2 2v1c-1 4 0 8 2 12v10l2 3v12l2 3v1a616 616 0 0 1 7 87v91a551 551 0 0 1-7 81v1c-2 4-3 9-2 14l-2 16-2 2a370 370 0 0 0-7 40v10l-2 1v10l-2 1-12 60v1c-2 1-3 3-2 6v1c-3 2-4 6-3 10v1c-2 1-3 3-2 6v1c-2 1-3 3-2 6-4 5-6 12-6 19v1l-3 2c-2 3-3 7-2 12l-2 6c-1-1-2 0-2 1-1 2-2 5-1 8-5 5-7 11-7 19-2 0-3 2-4 4-2 3-3 7-3 12-2 0-3 1-4 3-4 11-8 23-14 34l-2 10c-3 1-5 4-4 8-2 0-3 1-4 3-1 3-3 7-3 12l-6 12c-3 0-4 2-3 5l-2 4c-3 1-4 3-3 6l-2 4c-3 0-4 2-3 5l-1 2c-3 1-4 3-3 6-3 0-4 2-3 5-2 0-4 1-4 3l-8 14-3 9c-3 0-4 2-3 5-2 0-3 1-2 3-3 0-4 2-3 5-2 0-3 1-2 3-3 1-5 3-5 6l-2-2 4-10c3-2 4-5 5-8l4-4 11-19 2-6 3-3a2623 2623 0 0 0 50-105l11-26c0-3 2-5 3-6l4-13a351 351 0 0 0 17-53c1-6 2-12 5-17l6-21c-1-2 0-3 1-4l3-9 21-115v-1l2-14v-4l2-8a259 259 0 0 0 5-55 1813 1813 0 0 0-1-142 3155 3155 0 0 0-6-56 1523 1523 0 0 1-7-43v-1c0-10-2-19-5-27v-4l-2-15a1220 1220 0 0 1-15-59l-8-30c-3-10-6-20-7-29v-2l3 3Z" opacity=".1"/><path fill="#5c5c5b" d="M2124 904c2 4 3 10 3 16l-3-16Z" opacity=".4"/><path fill="#4a4948" d="M2131 947a3155 3155 0 0 1 6 56l-2-8-4-48Z" opacity=".2"/><path fill="#777775" d="m26 952-2 15c-1-6 0-11 2-15Z" opacity=".7"/><path fill="#676667" d="M1783 975c-3 0-3 1-1 2l-2 1-30-1c6-5 13-7 22-5l11 3Z"/><path fill="#ccc9cc" d="M1783 975c1 1 2 2 2 5 1 7 0 14-2 21-3-2-4-4-5-6-1-6 0-12 2-17l2-1c-2-1-2-2 1-2Z"/><path fill="#b3b2b3" d="m1088 982 9-1 26 1-14 3-21-3Z"/><path fill="#cccaca" d="M777 1000c4-1 8 0 12 3a2230 2230 0 0 1 136 88 658 658 0 0 1-148-91Z"/><path fill="#d3d0d2" d="M1778 1003c3-1 6 1 7 5l-10 37c-19 89-71 153-153 191l-47 18c-17 5-34 7-50 5l-1-1c38-9 75-22 110-40 80-47 127-117 140-210l4-5Z"/><path fill="#878684" d="m2135 995 2 8 1 30v10l-3-48Z" opacity=".7"/><path fill="#575755" d="m24 968-2 122h-1v-2a4802 4802 0 0 1 3-120Z" opacity=".3"/><path fill="#bbb8ba" d="M1001 1069c1 1 2 2 5 2-6 15-15 28-25 40l-7 5-1-3a73492 73492 0 0 0 28-44Z"/><path fill="#6d6c6a" d="m2138 1033 2 44-2 68h-1c1-34 2-68 1-102v-10Z" opacity=".6"/><path fill="#222" d="m28 912 1 4c-3 11-4 22-3 34v2c-2 4-3 9-2 15v1c-2 7-3 14-3 22v98a3103 3103 0 0 0-3 71V984c-1-9 0-17 2-25l1-3 1-12v-1l1-2 1-12c-1-5 0-9 2-13l2-4Z" opacity=".1"/><path fill="#343133" d="m973 1113 1 3c0 5-2 8-6 11-2-6-1-11 5-14Z"/><path fill="#6b6a6b" d="M1020 1113c-1 6-2 12-6 19l-13 16c-2-3-2-5-1-7l20-28Z"/><path fill="#747472" d="M21 1090h1a2021 2021 0 0 0-1 0Z" opacity=".6"/><path fill="#333031" d="M962 1128h3l-3 9c-5 2-9 5-13 9l-1-2 14-16Z"/><path fill="#b8b4b6" d="M1189 1138h4l8 12c1 2 2 5 1 8-7-5-12-12-13-20Z"/><path fill="#4b4b49" d="M2137 1145h1a220 220 0 0 1-5 55v-7l4-48Z" opacity=".2"/><path fill="#3b3b3a" d="M21 1088v2a1625 1625 0 0 0 2 72v12l1 18-4-17v19c-2-9-3-17-2-25v-10l1 8 2-79Z" opacity=".1"/><path fill="#6a696a" d="M966 1188c1 3 0 6-2 10l-19 17v-4c8-7 15-15 21-23Z"/><path fill="#7e7d7b" d="M2133 1193v7l-2 8c-1-6 0-11 2-15Z" opacity=".5"/><path fill="#6a6a68" d="m23 1174 3 30c-2-4-2-8-2-12l-1-18Z" opacity=".4"/><path fill="#767673" d="M27 1212c2 6 3 13 3 20l-3-20Z" opacity=".5"/><path fill="#676765" d="m2131 1212-2 14c-1-5 0-10 2-14Z" opacity=".5"/><path fill="#9e9d9e" d="M1835 1288c0-3-1-5-3-5 1-13 3-25 6-36 1-2 1-2 2 0 2 5 2 11 1 17l-6 24Z"/><path fill="#6b6b69" d="m32 1245 5 28c-3-9-5-19-5-28Z" opacity=".4"/><path fill="#5b5a5b" d="M1382 1257c21 0 43 3 66 7-17 4-34 3-50-2l-16-5Z"/><path fill="#d2d0d1" d="M1461 1262c13-1 26 0 39 2l-10 2a359 359 0 0 1-39-1c3-2 6-3 10-3Z"/><path fill="#636361" d="M2129 1227Z" opacity=".4"/><path fill="#5d5c5d" d="M1241 1309c5 15 3 30-7 44-3 3-5 3-6 0l4-8 9-36Z"/><path fill="#605f5e" d="M37 1273Z" opacity=".3"/><path fill="#c8c3c6" d="M1832 1283c2 0 3 2 3 5-2 15-5 30-10 44-11 62-30 122-58 179-15 26-32 51-52 75 39-59 67-122 86-189a1925 1925 0 0 0 31-114Z"/><path fill="#242424" d="M24 1192c0 4 0 8 2 12l1 8 3 20 2 13a640 640 0 0 0 30 145l-2 3-2-2c0-4-1-8-3-10v-1l-2-6v-1a1336 1336 0 0 1-17-74v-2l-1-8-1-1v-2l-1-8-1-1c-1-3-2-6-1-8l-2-15a6684 6684 0 0 1-9-59v-20l4 17Z" opacity=".1"/><path fill="#d3d0d2" d="M1027 1341c6-1 12 0 19 1v3l-25 10c-3 1-6 2-9 1-3-2-3-4-1-6 5-5 10-8 16-9Z"/><path fill="#595958" d="m2104 1355-6 21c1-8 3-15 6-21Z" opacity=".3"/><path fill="#545453" d="m56 1363 5 17c-4-5-6-11-5-17Z" opacity=".2"/><path fill="#4e4d4c" d="m61 1380 9 30-9-17 1 6-2-1v-5l2-3c-1-4-2-7-1-10Z" opacity=".2"/><path fill="#777775" d="m2093 1393-4 13c0-5 1-9 4-13Z" opacity=".5"/><path fill="#71716f" d="M2089 1406Z" opacity=".4"/><path fill="#706f6d" d="M70 1410Z" opacity=".4"/><path fill="#61605f" d="m2076 1446-4 13c-1 1-3 3-3 6a6537 6537 0 0 0 7-19Z" opacity=".5"/><path fill="#252524" d="M70 1410a687 687 0 0 0 36 94l-2 6-5-7-2-8a498 498 0 0 1-32-87l-3-3v-6l-1-6 9 17Z" opacity=".1"/><path fill="#60605e" d="M92 1471Z" opacity=".4"/><path fill="#d3d2d3" d="M1214 1494v3c-15-2-30-2-44 1-10 3-19 8-27 14-14 6-27 6-40 0-11-7-23-13-34-18 3-2 6-3 10-3l25 6h35l31-8c14-2 28-1 43 3l1 2Z"/><path fill="#60605e" d="m2069 1465-11 26 5-16c1-4 3-8 6-10Z" opacity=".4"/><path fill="#9f9e9f" d="M1214 1494c21 4 40 13 59 25v2a1462 1462 0 0 1-59-24v-3Z"/><path fill="#d8d7d8" d="m1169 1539 1 9-27 21c-15 7-29 5-42-4l-33-23c-30-15-61-20-94-17l-25 3v-5l61-15c20-2 40 2 58 13 12 10 26 18 42 23 7 1 15 2 23 1a619 619 0 0 0 36-6Z"/><path fill="#3a3939" d="m106 1504 10 23-6-7-1 1-4-4-1-7 2-6Z" opacity=".1"/><path fill="#b5b1b3" d="M1273 1521v-2c3-1 7-2 11-1l16 4 2 2c-11 3-20 2-29-3Z"/><path fill="#6c6b6c" d="M949 1523v5c-6 2-12 2-17 1-1-3 0-5 3-6h14Z"/><path fill="#5f5e5d" d="M2058 1491Z" opacity=".3"/><path fill="#646463" d="M116 1527c2 3 4 6 5 11-3-3-5-7-5-11Z" opacity=".3"/><path fill="#383436" d="m1170 1548-1-9c3-2 7-2 11-1l1 2c-3 4-6 7-11 8Z"/><path fill="#5f5f5d" d="m121 1538 12 24-2-1c-5-8-8-16-10-23Z" opacity=".3"/><path fill="#5d5d5c" d="M133 1562c4 6 8 13 11 21l-2-1-6-10-3-10Z" opacity=".3"/><path fill="#565554" d="m2040 1531-1 4a2623 2623 0 0 1-34 64l35-68Z" opacity=".3"/><path fill="#5e5d5b" d="M144 1583c3 3 5 8 7 13l-6-7c-1-2-2-4-1-6Z" opacity=".3"/><path fill="#2a2a2a" d="M116 1527c0 4 2 8 5 11 2 7 5 15 10 23l2 1 3 10 6 10 2 1c-1 2 0 4 1 6l6 7 5 13 4 3c1 6 4 11 9 15l5 8v4l8 12-1 2-3-3-4-7c-1-2-2-2-3-2l-3-7-2-1-3-7-2-1c0-3-1-5-3-5l-1-2c0-3-1-5-3-5l-1-2c-1-4-2-6-4-7l-1-2c0-4-2-6-4-7 0-2-1-3-2-3l-1-2c0-4-1-7-4-8-4-4-6-9-7-13 0-4-1-7-4-8l-2-4a149795 149795 0 0 0-14-37l6 7Z" opacity=".1"/><path fill="#4c4c4b" d="m151 1596 9 16-4-3-5-13Z" opacity=".1"/><path fill="#555552" d="m160 1612 9 15c-5-4-8-9-9-15Z" opacity=".3"/><path fill="#565554" d="m2005 1599-2 6-11 19-4 4c5-10 10-20 17-29Z" opacity=".3"/><path fill="#585756" d="M1988 1628c-1 3-2 6-5 8 1-4 2-6 5-8Z" opacity=".3"/><path fill="#c4c2c5" d="M1689 1606c2 0 4 2 6 4l-10 15-22 20-3 1a6404 6404 0 0 1-156 148c-3-3-3-6 0-9l10-9 4-1c45-46 92-91 140-134l31-35Z"/><path fill="#515150" d="m1983 1636-4 10 2 2v2l-1 1h-1l-2-2-4 3c2-6 6-12 10-16Z" opacity=".3"/><path fill="#1d1d1c" d="m1979 1651-7 11-2-2 3-8 4-3 2 2Z" opacity=".1"/><path fill="#4e4e4d" d="m1973 1652-3 8 2 2v2l-3 4h-1c-1-4-2-5-4-2 2-6 5-10 9-14Z" opacity=".1"/><path fill="#3d3d3c" d="m174 1635 21 33-5-3-1 1h-2l-6-11-2-1-1-2v-2l3 3 1-2-8-12v-4Z" opacity=".1"/><path fill="#1e1d1d" d="M195 1668v4l6 8-2 2c-3-5-6-10-10-13v-3l1-1 5 3Z" opacity=".1"/><path fill="#3c3c3b" d="M1968 1668c-2 1-3 2-2 5-4 2-6 5-6 9l-4 6c-3 0-4 1-3 4l-14 19c-2 0-3 1-2 3l-1 1c-1-2-2-3-3-2-2 1-2 2 0 3l-4 2c1 2 0 3-2 2 4-8 9-15 15-21l2-4c5-11 12-20 20-29 2-3 3-2 4 2Z" opacity=".1"/><path fill="#2e2e2d" d="M195 1668a2734 2734 0 0 0 44 64l-5-1c-1-3-2-4-4-5l-3-4-3-4-3-4a28706 28706 0 0 1-20-34l-6-8v-4Z" opacity=".1"/><path fill="#545454" d="m1936 1715-10 13c-1-3 0-6 1-8 2 1 3 0 2-2l4-2c-2-1-2-2 0-3 1-1 2 0 3 2Z" opacity=".1"/><path fill="#222" d="M1927 1720c-1 2-2 5-1 8-1-2-2-2-3-2-2 1-2 2 0 3l-4 2 1 2-4 1c3-6 6-10 11-14Z" opacity=".1"/><path fill="#616160" d="M236 1725c3 2 5 6 8 10l-6-2c2 3 4 5 5 9l-9-11 5 1-3-7Z" opacity=".1"/><path fill="#626160" d="m1944 1695-2 4c-6 6-11 13-15 21-5 4-8 8-11 14l-13 14c-1 1-2 3-1 5h3l-3 4-2-5c-2 1-4 3-4 6l2 2v2l-8 9-1-4c2 0 3-1 2-3l2-4-11 12c10-14 22-27 33-40 9-13 19-26 29-37Z" opacity=".4"/><path fill="#424242" d="m1926 1728-21 25h-3c-1-2 0-4 1-5l13-14 4-1-1-2 4-2c-2-1-2-2 0-3 1 0 2 0 3 2Z" opacity=".1"/><path fill="#202020" d="m244 1735 3 7-2 1-2-1c-1-4-3-6-5-9l6 2Z" opacity=".1"/><path fill="#444343" d="m244 1735 21 25-11-9v4l-8-9-1-3 2-1-3-7Z" opacity=".1"/><path fill="#343333" d="m1902 1757-2 2-2 1-2-2c0-3 2-5 4-6l2 5Z" opacity=".1"/><path fill="#232222" d="M265 1760c1 3 4 6 8 9v4l12 10-1 4-2-1-2-1c0-3-2-4-4-4l-3-4c0-3-2-4-4-4l-3-4c0-3-2-4-4-4 0-2-1-3-2-3 0-3-2-4-4-4 0-2-1-3-2-3v-4l11 9Z" opacity=".1"/><path fill="#6e6d6b" d="M265 1760c3 2 6 5 8 9-4-3-7-6-8-9Z" opacity=".5"/><path fill="#4b4a49" d="m273 1769 12 14-12-10v-4Z" opacity=".2"/><path fill="#424141" d="m1890 1771-3 3c-2 0-3 1-2 3l-5 5c-2 0-3 1-2 3l-5 5c-2 0-3 1-2 3l-5 5c-3 1-5 3-5 6l-2 2-3-4 2-3c7-10 15-19 24-27l11-12-2 4c1 2 0 3-2 3l1 4Z" opacity=".1"/><path fill="#414140" d="M285 1783a311 311 0 0 1 10 13l-1 2 3 6-4-4c0-2-1-3-3-3l-3-4c0-3-2-4-4-4l-1-3 2 1 1-4Z" opacity=".2"/><path fill="#696967" d="M305 1805Z" opacity=".4"/><path fill="#545353" d="m1858 1799-2 3 3 4-13 13h-1l-1-3 9-9v-2a520 520 0 0 1 5-6Z" opacity=".1"/><path fill="#292929" d="m1845 1819-25 25c-1-2-2-2-3-1-2 2-4 4-6 4a331 331 0 0 0 23-23 520 520 0 0 0 19-17l-9 9 1 3Z" opacity=".2"/><path fill="#bab7b9" d="m1443 1849-3-3a319 319 0 0 1 53-46v3l-14 15-3 1-33 30Z"/><path fill="#9f9e9f" d="m1440 1846 3 3c-8 10-19 17-31 20 8-9 17-17 28-23Z"/><path fill="#565554" d="M355 1855c4 2 8 6 12 11l-9-7-3-4Z" opacity=".4"/><path fill="#292929" d="M305 1805v2a816 816 0 0 0 62 59l57 49a355 355 0 0 1 46 33l25 18c2 3 5 5 9 6l4 3 4 5c4 1 7 3 10 6v2l-3-1c-2-3-5-4-7-3-1-2-2-3-3-2-2-4-5-5-8-5-1-2-2-3-3-2-1-2-2-3-3-2-1-2-2-3-3-2-2-4-5-5-8-5-1-2-2-3-3-2l-4-3c-1-2-2-3-3-2-1-2-2-3-3-2-1-2-2-3-3-2l-4-3c-1-2-2-3-3-2l-4-3-4-3-4-3-4-3-4-3-4-3c-1-2-2-3-3-2l-2-2-4-3c-2-3-3-4-5-4-2-3-4-5-6-5l-7-6c-2-3-4-5-6-5l-7-6c-3-4-5-6-8-7-3-4-5-6-8-7-3-4-5-6-8-7-3-4-5-6-8-7-4-5-7-8-11-10a96 96 0 0 0-19-18c0-3-2-4-4-4 0-3-2-4-4-4 0-3-2-4-4-4 0-3-2-4-4-4 0-3-2-4-4-4 0-3-2-4-4-4-2-4-5-7-8-8l-6-7-3-6 1-2 10 9Z" opacity=".1"/><path fill="#4a4a49" d="M1826 1832a331 331 0 0 1-9 11c1-1 2-1 3 1l-2 3a204 204 0 0 1-29 27l-5 5c-2-1-3 0-3 2l-5 5c-2-1-3 0-3 2l-5 5-1-4h-2v-1l61-56Z" opacity=".1"/><path fill="#333332" d="M1765 1889h2l1 4c-2-1-3 0-3 2l-4 4c-2-1-3 0-3 2l-4 4c-2-1-3 0-3 2l-4 4-3 1-4-2 25-21Z" opacity=".1"/><path fill="#dddbdd" d="m914 1932 53 39c41 26 86 39 135 41-6 10-14 16-25 17a252 252 0 0 1-157-80c-3-6-5-11-6-17Z"/><path fill="#666664" d="M1765 1888v1l-25 21 4 2v1l-4 4-1-4-2-1a501 501 0 0 1 28-24Z" opacity=".5"/><path fill="#2d2d2d" d="M1740 1917c-2-1-3 0-3 2l-2 2c-2-1-3 0-3 2l-2 2c-2-1-3 0-3 2l-1 1c-2-1-3 0-3 2l-1 1c-2-1-3 0-3 2l-1 1c-2-1-3 0-3 2l-2 2c-2-1-3 0-3 2-3-1-4 0-4 3-3-1-4 0-4 3-3-1-4 0-4 3-2-1-3 0-3 2-2-1-3 0-3 2l-1 1c-2-1-3 0-3 2-2-1-3 0-3 2-2-1-3 0-3 2-2-1-3 0-3 2-2-1-3 0-3 2-2-1-3 0-3 2-2-1-3 0-3 2-2-1-3 0-3 2-2-1-3 0-3 2-2-1-3 0-3 2l-3 1h-3c-1-3 0-5 3-6l25-17a501 501 0 0 0 56-39l1 4Z" opacity=".1"/><path fill="#6a6967" d="M495 1966c3 0 6 2 9 6-4-1-7-3-9-6Z" opacity=".6"/><path fill="#61615f" d="m1683 1952-25 17c-3 1-4 3-3 6h3v1l-5 3 1-3-2-1-7 2c12-9 24-18 38-25Z" opacity=".3"/><path fill="#2d2c2c" d="M1653 1979c-2-1-3 0-3 2-2-1-3 0-3 2-2-1-3 0-3 2h-5v3c-2-1-3 0-3 2l-2 1c-2-1-3 0-3 2-2-1-3 0-3 2h-5c-1-2 0-3 1-3l21-15 7-2 2 1-1 3Z" opacity=".1"/><path fill="#474645" d="M508 1975c7 3 13 7 20 12 4 1 7 2 10 6-5-1-9-2-13-5l-1 1 3 3h-2l-2-1c-1-2-2-3-3-2l-1-2 3 1v-2c-3-3-6-5-10-6l-4-5Z" opacity=".1"/><path fill="#282828" d="M1621 1999c-3 0-4 1-5 3l-2 1c-3 0-4 1-5 3-4-1-7 0-10 3-4-2-4-3 0-4l18-10c3-1 5 0 4 4Z" opacity=".1"/><path fill="#5e5e5d" d="m1645 1977-21 15c-1 0-2 1-1 3h5l-2 1c-2-1-3 0-3 2l-2 1c1-4-1-5-4-4l-18 10c-4 1-4 2 0 4 3-3 6-4 10-3l-2 1c-3 0-4 1-5 3l-4 2-5 2c0-2 2-4 4-4l-3-1-6 2a1138 1138 0 0 0 57-34Z" opacity=".3"/><path fill="#4e4d4c" d="M546 1998c7 2 14 6 21 12l-10-4-11-8Z" opacity=".3"/><path fill="#212121" d="m538 1993 8 5 11 8 10 4 3 1 2 3 13 6v3h-3l-4-2-9-5-6-3-5-3-4-2-5-3-2-1-5-3-2-1-5-3-5-3h-2l-1-2-3-3 1-1c4 3 8 4 13 5Zm1055 21h-1l-2-2-2 3-3-2 3-2 6-2 3 1c-2 0-4 2-4 4Z" opacity=".1"/><path fill="#545453" d="m1588 2011-3 2 3 2 2-3 2 2-1 2-4 2c-4 0-7 2-9 5l-4 2 1-5 2 1 9-5-3-1c-3 0-6 1-8 3-1-1 0-2 1-2 3-3 7-4 12-5Z" opacity=".1"/><path fill="#383838" d="m570 2011 20 10 4 4c-2-1-4 0-4 2l-8-4h3v-3a6334 6334 0 0 1-15-9Z" opacity=".1"/><path fill="#7f7f7c" d="m590 2021 22 11-18-7-4-4Z" opacity=".7"/><path fill="#302f2f" d="m1574 2025-2 1c-6 1-11 4-15 8l-10 5c-6 1-11 3-15 7l-2 1c-3 0-6 1-7 3l-2 1-8 1-9 5-19 7-4 4-2 1c-3-1-4 0-5 2l-2 1c-3-1-4 0-5 2-5 0-8 1-11 4-6 0-10 2-14 5l-8 2c0-2 0-3 2-3l-2-1c-8 1-15 4-21 8l17-3-18 6c-5 0-8 1-11 4l-5 1h-4c-5-2-10-1-13 2l-14 3 18-7 10-3a660 660 0 0 0 140-53l42-21c2-2 5-3 8-3l3 1-9 5-2-1-1 5Z" opacity=".1"/><path fill="#676665" d="m1575 2018-42 21c13-9 27-16 42-21Z" opacity=".4"/><path fill="#2d2d2c" d="m594 2025 18 7 18 9 3 3c3 1 6 2 9 5v2c-2-1-4-2-5-1-2-1-4-2-5-1-5-4-10-6-15-7l-18-10-9-5c0-2 2-3 4-2Z" opacity=".1"/><path fill="#6f6f6d" d="M1533 2039Z" opacity=".5"/><path fill="#494948" d="m630 2041 39 17-11-1 4 4h-2c-2-3-5-4-7-3v-1l4-1c-4-4-8-6-13-5l4 4-9-3-2-2c1-1 3 0 5 1v-2c-3-3-6-4-9-5l-3-3Z" opacity=".1"/><path fill="#252525" d="m653 2057-5-1v-1l-4-4c5-1 9 1 13 5l-4 1Z" opacity=".1"/><path fill="#71716f" d="M669 2058c4 0 7 2 11 5-5-1-8-3-11-5Z" opacity=".5"/><path fill="#282827" d="M669 2058c3 2 6 4 11 5l3 1c2 2 5 4 10 4l13 8-2 1c-4-3-7-4-11-3l-5-1c-2-3-5-4-7-3-2-3-5-4-7-3-2-3-5-4-7-3l-5-3-4-4 11 1Z" opacity=".1"/><path fill="#6f6f6d" d="M683 2064c3 0 6 2 10 4-5 0-8-2-10-4Z" opacity=".6"/><path fill="#787876" d="M1475 2064Z" opacity=".5"/><path fill="#494848" d="M693 2068a1173 1173 0 0 1 25 10l-10-2-1 1 2 3-5-1c-4-3-7-4-11-4v-1c4-1 7 0 11 3l2-1-13-8Z" opacity=".1"/><path fill="#1d1d1d" d="M718 2078c3 2 6 4 11 4l3 3-16-3-7-2-2-3 1-1 10 2Z" opacity=".1"/><path fill="#464646" d="M718 2078h6a285 285 0 0 0 15 8l-3 1 4 3h-4l-18-6-2-2 16 3-3-3c-5 0-8-2-11-4Z" opacity=".1"/><path fill="#4a4a49" d="M752 2089c9 1 18 4 27 8-10-1-19-3-27-8Z" opacity=".2"/><path fill="#1e1e1e" d="M1392 2097a735 735 0 0 1-80 18l5-2 5-2 14-3c6 0 11-2 17-4l12-2 14-3c3-3 8-4 13-2Z" opacity=".1"/><path fill="#757573" d="M779 2097Z" opacity=".7"/><path fill="#676765" d="m1383 2095-18 7-12 2c0-2 0-2 2-2l28-7Z" opacity=".4"/><path fill="#595958" d="M1353 2104c-6 2-11 4-17 4 5-4 10-5 17-4Z" opacity=".3"/><path fill="#6e6e6c" d="m1336 2108-14 3 1-2c4-1 8-2 13-1Z" opacity=".4"/><path fill="#72716f" d="m828 2109 12 3c-5 0-9-1-12-3Z" opacity=".6"/><path fill="#807f7d" d="m848 2113 12 3-12-3Z" opacity=".7"/><path fill="#868683" d="M861 2116c9 0 19 2 29 5l-29-5Z" opacity=".9"/><path fill="#797876" d="m1322 2111-5 2-47 8h-2c17-5 35-8 54-10Z" opacity=".5"/><path fill="#747472" d="M890 2121Z" opacity=".7"/><path fill="#565655" d="M1268 2121h2a2156 2156 0 0 1-2 0Z" opacity=".3"/><path fill="#757472" d="M938 2130v-1l23 3-13-1-10-1Z" opacity=".7"/><path fill="#2a2929" d="m938 2130 10 1 2 1c20 3 41 5 63 6h17l19 1a940 940 0 0 0 157-8h1a400 400 0 0 0 24-1l-1 2-79 9-108 2c-20-3-40-4-60-3l-22-2c-1-2-2-2-3-2a1013 1013 0 0 1-124-22l3-1a3128 3128 0 0 0 101 17Z" opacity=".1"/><path fill="#414140" d="m948 2131 13 1h1l25 2h2l24 4a778 778 0 0 1-65-7Z" opacity=".3"/><path fill="#949391" d="M962 2132c8-1 16 0 25 2l-25-2Z"/><path fill="#747472" d="m989 2134 46 3v1h-22l-24-4Z" opacity=".6"/><path fill="#a2a19f" d="m1141 2136-17 1-89 1v-1l106-1Z" opacity=".9"/><path fill="#595957" d="m1206 2131-32 4a940 940 0 0 1-144 3h5a3941 3941 0 0 0 106-2l65-5Z" opacity=".4"/></svg>